<svg width="238" height="238" viewBox="0 0 238 238" fill="none" xmlns="http://www.w3.org/2000/svg">
<path d="M14.875 211.969C14.875 214.928 16.0504 217.765 18.1426 219.857C20.2348 221.95 23.0724 223.125 26.0312 223.125H211.969C214.928 223.125 217.765 221.95 219.857 219.857C221.95 217.765 223.125 214.928 223.125 211.969V81.8125H14.875V211.969ZM163.625 98.5469C163.625 98.0537 163.821 97.5808 164.17 97.2321C164.518 96.8834 164.991 96.6875 165.484 96.6875H184.078C184.571 96.6875 185.044 96.8834 185.393 97.2321C185.742 97.5808 185.938 98.0537 185.938 98.5469V117.141C185.938 117.634 185.742 118.107 185.393 118.455C185.044 118.804 184.571 119 184.078 119H165.484C164.991 119 164.518 118.804 164.17 118.455C163.821 118.107 163.625 117.634 163.625 117.141V98.5469ZM163.625 135.734C163.625 135.241 163.821 134.768 164.17 134.42C164.518 134.071 164.991 133.875 165.484 133.875H184.078C184.571 133.875 185.044 134.071 185.393 134.42C185.742 134.768 185.938 135.241 185.938 135.734V154.328C185.938 154.821 185.742 155.294 185.393 155.643C185.044 155.992 184.571 156.188 184.078 156.188H165.484C164.991 156.188 164.518 155.992 164.17 155.643C163.821 155.294 163.625 154.821 163.625 154.328V135.734ZM126.438 98.5469C126.438 98.0537 126.633 97.5808 126.982 97.2321C127.331 96.8834 127.804 96.6875 128.297 96.6875H146.891C147.384 96.6875 147.857 96.8834 148.205 97.2321C148.554 97.5808 148.75 98.0537 148.75 98.5469V117.141C148.75 117.634 148.554 118.107 148.205 118.455C147.857 118.804 147.384 119 146.891 119H128.297C127.804 119 127.331 118.804 126.982 118.455C126.633 118.107 126.438 117.634 126.438 117.141V98.5469ZM126.438 135.734C126.438 135.241 126.633 134.768 126.982 134.42C127.331 134.071 127.804 133.875 128.297 133.875H146.891C147.384 133.875 147.857 134.071 148.205 134.42C148.554 134.768 148.75 135.241 148.75 135.734V154.328C148.75 154.821 148.554 155.294 148.205 155.643C147.857 155.992 147.384 156.188 146.891 156.188H128.297C127.804 156.188 127.331 155.992 126.982 155.643C126.633 155.294 126.438 154.821 126.438 154.328V135.734ZM126.438 172.922C126.438 172.429 126.633 171.956 126.982 171.607C127.331 171.258 127.804 171.062 128.297 171.062H146.891C147.384 171.062 147.857 171.258 148.205 171.607C148.554 171.956 148.75 172.429 148.75 172.922V191.516C148.75 192.009 148.554 192.482 148.205 192.83C147.857 193.179 147.384 193.375 146.891 193.375H128.297C127.804 193.375 127.331 193.179 126.982 192.83C126.633 192.482 126.438 192.009 126.438 191.516V172.922ZM89.25 135.734C89.25 135.241 89.4459 134.768 89.7946 134.42C90.1433 134.071 90.6162 133.875 91.1094 133.875H109.703C110.196 133.875 110.669 134.071 111.018 134.42C111.367 134.768 111.562 135.241 111.562 135.734V154.328C111.562 154.821 111.367 155.294 111.018 155.643C110.669 155.992 110.196 156.188 109.703 156.188H91.1094C90.6162 156.188 90.1433 155.992 89.7946 155.643C89.4459 155.294 89.25 154.821 89.25 154.328V135.734ZM89.25 172.922C89.25 172.429 89.4459 171.956 89.7946 171.607C90.1433 171.258 90.6162 171.062 91.1094 171.062H109.703C110.196 171.062 110.669 171.258 111.018 171.607C111.367 171.956 111.562 172.429 111.562 172.922V191.516C111.562 192.009 111.367 192.482 111.018 192.83C110.669 193.179 110.196 193.375 109.703 193.375H91.1094C90.6162 193.375 90.1433 193.179 89.7946 192.83C89.4459 192.482 89.25 192.009 89.25 191.516V172.922ZM52.0625 135.734C52.0625 135.241 52.2584 134.768 52.6071 134.42C52.9558 134.071 53.4287 133.875 53.9219 133.875H72.5156C73.0088 133.875 73.4817 134.071 73.8304 134.42C74.1791 134.768 74.375 135.241 74.375 135.734V154.328C74.375 154.821 74.1791 155.294 73.8304 155.643C73.4817 155.992 73.0088 156.188 72.5156 156.188H53.9219C53.4287 156.188 52.9558 155.992 52.6071 155.643C52.2584 155.294 52.0625 154.821 52.0625 154.328V135.734ZM52.0625 172.922C52.0625 172.429 52.2584 171.956 52.6071 171.607C52.9558 171.258 53.4287 171.062 53.9219 171.062H72.5156C73.0088 171.062 73.4817 171.258 73.8304 171.607C74.1791 171.956 74.375 172.429 74.375 172.922V191.516C74.375 192.009 74.1791 192.482 73.8304 192.83C73.4817 193.179 73.0088 193.375 72.5156 193.375H53.9219C53.4287 193.375 52.9558 193.179 52.6071 192.83C52.2584 192.482 52.0625 192.009 52.0625 191.516V172.922ZM211.969 29.75H185.975V14.875H163.662V29.75H74.3378V14.875H52.0253V29.75H26.0312C24.5718 29.7377 23.1243 30.0144 21.7722 30.564C20.4201 31.1136 19.1901 31.9253 18.1531 32.9524C17.1161 33.9795 16.2926 35.2016 15.73 36.5483C15.1674 37.895 14.8768 39.3398 14.875 40.7993V66.9375H223.125V40.7993C223.123 39.3398 222.833 37.895 222.27 36.5483C221.707 35.2016 220.884 33.9795 219.847 32.9524C218.81 31.9253 217.58 31.1136 216.228 30.564C214.876 30.0144 213.428 29.7377 211.969 29.75Z" fill="white"/>
</svg>
