<svg width="190" height="190" viewBox="0 0 190 190" fill="none" xmlns="http://www.w3.org/2000/svg">
<path d="M138.136 144.762L143.48 139.454C168.203 140.262 168.583 139.395 169.67 136.853L176.462 120.317L176.967 118.75L176.415 117.378C176.124 116.654 175.227 114.493 159.79 99.7738V92.0312C177.602 74.8719 177.222 73.9931 176.207 71.4816L169.444 54.7734C168.429 52.2678 168.043 51.2881 143.497 51.9591L138.154 46.4372C138.712 38.3035 138.432 30.134 137.317 22.0578L136.628 20.4962L118.97 12.7775C116.369 11.59 115.455 11.1625 98.7822 29.3194L91.2891 29.2066C74.1237 10.8834 73.3103 11.2159 70.7394 12.255L54.3222 18.8931C51.7512 19.9322 50.8428 20.3003 51.8403 45.2378L46.5381 50.5222C21.8262 49.7147 21.4462 50.5934 20.3716 53.1228L13.5672 69.6647L13.0328 71.25L13.5909 72.6275C13.8819 73.34 14.7428 75.4775 30.2159 90.2144V97.9331C12.4034 115.092 12.7894 115.971 13.8106 118.489L20.5675 135.215C21.6006 137.774 21.9687 138.682 46.5084 138.041L51.8522 143.592C51.2965 151.714 51.5691 159.87 52.6656 167.936L53.3544 169.51L71.1253 177.276C73.7081 178.357 74.6047 178.742 91.2297 160.651L98.7228 160.746C115.912 179.093 116.791 178.737 119.302 177.721L135.684 171.101C138.272 170.074 139.175 169.712 138.136 144.762ZM67.7291 106.026C65.6572 100.611 65.2306 94.7053 66.5029 89.049C67.7751 83.3928 70.6895 78.2383 74.8803 74.2323C79.0712 70.2262 84.3518 67.5471 90.0596 66.5311C95.7674 65.5151 101.648 66.2074 106.964 68.5212C112.28 70.835 116.794 74.6672 119.94 79.5369C123.086 84.4067 124.723 90.0971 124.647 95.8941C124.571 101.691 122.785 107.337 119.512 112.122C116.239 116.908 111.626 120.62 106.252 122.793C98.9183 125.661 90.7477 125.507 83.528 122.364C76.3082 119.222 70.6275 113.347 67.7291 106.026Z" fill="white"/>
</svg>
