<svg width="229" height="229" viewBox="0 0 229 229" fill="none" xmlns="http://www.w3.org/2000/svg">
<g clip-path="url(#clip0_737_2)">
<path d="M104.958 200.375L74.6635 173.181C63.2135 162.844 53.392 153.621 45.1989 145.51C37.0057 137.4 30.2471 129.767 24.9228 122.61C19.5986 115.454 15.7024 108.536 13.2343 101.857C10.7662 95.1781 9.53529 88.1809 9.54165 80.8656C9.54165 65.917 14.551 53.4747 24.5698 43.5386C34.5885 33.6026 47.0722 28.6314 62.0208 28.625C70.2903 28.625 78.1621 30.3743 85.6364 33.8729C93.1107 37.3715 99.5514 42.3014 104.958 48.6625C110.365 42.3014 116.806 37.3715 124.28 33.8729C131.754 30.3743 139.626 28.625 147.896 28.625C160.777 28.625 171.591 32.2445 180.337 39.4834C189.084 46.7224 195.048 55.8251 198.228 66.7917H177.952C175.09 60.4306 170.875 55.6597 165.309 52.4792C159.743 49.2986 153.939 47.7083 147.896 47.7083C139.785 47.7083 132.788 49.8966 126.904 54.273C121.02 58.6494 115.534 64.4126 110.445 71.5625H99.4719C94.542 64.4062 88.9347 58.6431 82.6499 54.273C76.3651 49.9029 69.4888 47.7147 62.0208 47.7083C52.9562 47.7083 45.1225 50.8507 38.5197 57.1355C31.9169 63.4203 28.6186 71.3271 28.625 80.8561C28.625 86.104 29.7382 91.4314 31.9646 96.8384C34.191 102.245 38.1666 108.489 43.8916 115.569C49.6166 122.649 57.409 130.918 67.2687 140.377C77.1285 149.836 89.6916 161.248 104.958 174.612C109.093 170.955 113.943 166.741 119.509 161.97C125.075 157.199 129.528 153.223 132.868 150.043L135.015 152.19L139.671 156.846L144.318 161.493L146.465 163.64C142.966 166.82 138.513 170.758 133.106 175.452C127.699 180.147 122.928 184.32 118.794 187.971L104.958 200.375Z" fill="white"/>
<path d="M174.536 60.7129C144.142 60.7129 119.509 85.3459 119.509 115.74C119.509 146.133 144.142 170.766 174.536 170.766C204.93 170.766 229.563 146.133 229.563 115.74C229.563 85.3459 204.93 60.7129 174.536 60.7129ZM206.628 120.318C206.628 122.854 204.586 124.896 202.049 124.896H183.714V143.253C183.714 145.789 181.672 147.831 179.136 147.831H169.958C167.421 147.831 165.379 145.768 165.379 143.253V124.918H147.023C144.486 124.918 142.444 122.854 142.444 120.339V111.161C142.444 108.625 144.486 106.583 147.023 106.583H165.358V88.2262C165.358 85.6899 167.4 83.6478 169.936 83.6478H179.114C181.651 83.6478 183.693 85.7113 183.693 88.2262V106.561H202.049C204.586 106.561 206.628 108.625 206.628 111.14V120.318Z" fill="white"/>
</g>
<defs>
<clipPath id="clip0_737_2">
<rect width="229" height="229" fill="white"/>
</clipPath>
</defs>
</svg>
