<svg width="150" height="172" viewBox="0 0 150 172" fill="none" xmlns="http://www.w3.org/2000/svg">
<g clip-path="url(#clip0_703_12)">
<path d="M75 86C86.3664 86 97.2673 81.4697 105.305 73.4056C113.342 65.3415 117.857 54.4043 117.857 43C117.857 31.5957 113.342 20.6585 105.305 12.5944C97.2673 4.53034 86.3664 0 75 0C63.6336 0 52.7327 4.53034 44.6954 12.5944C36.6581 20.6585 32.1429 31.5957 32.1429 43C32.1429 54.4043 36.6581 65.3415 44.6954 73.4056C52.7327 81.4697 63.6336 86 75 86ZM42.8571 104.544C18.0804 111.834 0 134.812 0 162.023C0 167.532 4.45313 172 9.9442 172H140.056C145.547 172 150 167.532 150 162.023C150 134.812 131.92 111.834 107.143 104.544V121.609C116.384 123.995 123.214 132.427 123.214 142.438V155.875C123.214 158.831 120.804 161.25 117.857 161.25H112.5C109.554 161.25 107.143 158.831 107.143 155.875C107.143 152.919 109.554 150.5 112.5 150.5V142.438C112.5 136.491 107.712 131.688 101.786 131.688C95.8594 131.688 91.0714 136.491 91.0714 142.438V150.5C94.0179 150.5 96.4286 152.919 96.4286 155.875C96.4286 158.831 94.0179 161.25 91.0714 161.25H85.7143C82.7679 161.25 80.3571 158.831 80.3571 155.875V142.438C80.3571 132.427 87.1875 123.995 96.4286 121.609V102.427C94.4196 102.226 92.3772 102.125 90.3013 102.125H59.6987C57.6228 102.125 55.5804 102.226 53.5714 102.427V124.398C61.3058 126.716 66.9643 133.905 66.9643 142.438C66.9643 152.818 58.5603 161.25 48.2143 161.25C37.8683 161.25 29.4643 152.818 29.4643 142.438C29.4643 133.905 35.1228 126.716 42.8571 124.398V104.544ZM48.2143 150.5C50.3455 150.5 52.3894 149.651 53.8964 148.139C55.4034 146.627 56.25 144.576 56.25 142.438C56.25 140.299 55.4034 138.248 53.8964 136.736C52.3894 135.224 50.3455 134.375 48.2143 134.375C46.0831 134.375 44.0392 135.224 42.5322 136.736C41.0252 138.248 40.1786 140.299 40.1786 142.438C40.1786 144.576 41.0252 146.627 42.5322 148.139C44.0392 149.651 46.0831 150.5 48.2143 150.5Z" fill="white"/>
</g>
<defs>
<clipPath id="clip0_703_12">
<rect width="150" height="172" fill="white"/>
</clipPath>
</defs>
</svg>
