<svg width="158" height="183" viewBox="0 0 158 183" fill="none" xmlns="http://www.w3.org/2000/svg">
<g clip-path="url(#clip0_703_22)">
<path d="M75 86C86.3664 86 97.2673 81.4697 105.305 73.4056C113.342 65.3415 117.857 54.4043 117.857 43C117.857 31.5957 113.342 20.6585 105.305 12.5944C97.2673 4.53034 86.3664 0 75 0C63.6336 0 52.7327 4.53034 44.6954 12.5944C36.6581 20.6585 32.1429 31.5957 32.1429 43C32.1429 54.4043 36.6581 65.3415 44.6954 73.4056C52.7327 81.4697 63.6336 86 75 86Z" fill="white"/>
<path d="M129.5 126C113.758 126 101 138.758 101 154.5C101 170.242 113.758 183 129.5 183C145.242 183 158 170.242 158 154.5C158 142.179 150.185 131.686 139.24 127.707C136.201 126.603 132.921 126 129.5 126ZM146.121 156.871C146.121 158.185 145.064 159.243 143.75 159.243H134.254V168.75C134.254 170.064 133.196 171.121 131.882 171.121H127.129C125.815 171.121 124.757 170.053 124.757 168.75V159.254H115.25C113.936 159.254 112.879 158.185 112.879 156.882V152.129C112.879 150.815 113.936 149.757 115.25 149.757H124.746V140.25C124.746 138.936 125.804 137.879 127.118 137.879H131.871C133.185 137.879 134.243 138.947 134.243 140.25V149.746H143.75C145.064 149.746 146.121 150.815 146.121 152.118V156.871Z" fill="white"/>
<path d="M53.8963 148.139C52.3894 149.651 50.3454 150.5 48.2142 150.5C46.083 150.5 44.0391 149.651 42.5321 148.139C41.0251 146.627 40.1785 144.576 40.1785 142.438C40.1785 140.299 41.0251 138.248 42.5321 136.736C44.0391 135.224 46.083 134.375 48.2142 134.375C50.3454 134.375 52.3894 135.224 53.8963 136.736C55.4033 138.248 56.2499 140.299 56.2499 142.438C56.2499 144.576 55.4033 146.627 53.8963 148.139Z" fill="white"/>
<path fill-rule="evenodd" clip-rule="evenodd" d="M42.8571 104.544C18.0804 111.834 0 134.812 0 162.023C0 167.532 4.45313 172 9.9442 172L103 172.171C98.9631 167.589 96.7262 162.865 95.8845 158.228C95.0108 160.014 93.178 161.25 91.0714 161.25H85.7142C82.7678 161.25 80.3571 158.831 80.3571 155.875V142.438C80.3571 132.427 87.1874 123.995 96.4285 121.609V102.9C93.601 102.47 91.1202 102.125 90.3013 102.125H59.6987C58.8798 102.125 56.399 102.47 53.5714 102.9V124.398C61.3058 126.716 66.9642 133.905 66.9642 142.438C66.9642 152.818 58.5602 161.25 48.2142 161.25C37.8683 161.25 29.4642 152.818 29.4642 142.438C29.4642 133.905 35.1227 126.716 42.8571 124.398L42.8571 104.544ZM101.097 103.629C101.236 103.651 101.374 103.673 101.511 103.695L101.514 103.695C101.376 103.674 101.237 103.652 101.097 103.629ZM107.143 104.544L107.143 121.609C109.907 122.323 112.456 123.577 114.67 125.254C121.843 121.374 129.677 120.135 135.596 123C128.183 114.346 118.348 107.84 107.143 104.544ZM106.107 131.495C105.836 131.752 105.569 132.014 105.306 132.279C104.204 131.896 103.019 131.688 101.786 131.688C95.8593 131.688 91.0714 136.491 91.0714 142.438V150.5C92.9135 150.5 94.5462 151.445 95.5113 152.877C95.5113 152.876 95.5113 152.877 95.5113 152.877C95.8363 144.737 100.149 137.167 106.107 131.495ZM53.8963 148.139C52.3894 149.651 50.3454 150.5 48.2142 150.5C46.083 150.5 44.0391 149.651 42.5321 148.139C41.0251 146.627 40.1785 144.576 40.1785 142.438C40.1785 140.299 41.0251 138.248 42.5321 136.736C44.0391 135.224 46.083 134.375 48.2142 134.375C50.3454 134.375 52.3894 135.224 53.8963 136.736C55.4033 138.248 56.2499 140.299 56.2499 142.438C56.2499 144.576 55.4033 146.627 53.8963 148.139Z" fill="white"/>
</g>
<defs>
<clipPath id="clip0_703_22">
<rect width="158" height="183" fill="white"/>
</clipPath>
</defs>
</svg>
