<svg width="266" height="266" viewBox="0 0 266 266" fill="none" xmlns="http://www.w3.org/2000/svg">
<path d="M232.75 221.667H254.917V243.833H11.0833V221.667H33.2499V33.25C33.2499 30.3105 34.4176 27.4914 36.4962 25.4129C38.5747 23.3344 41.3938 22.1667 44.3333 22.1667H221.667C224.606 22.1667 227.425 23.3344 229.504 25.4129C231.582 27.4914 232.75 30.3105 232.75 33.25V221.667ZM121.917 88.6667H99.7499V110.833H121.917V133H144.083V110.833H166.25V88.6667H144.083V66.5H121.917V88.6667ZM155.167 221.667H177.333V155.167H88.6666V221.667H110.833V177.333H155.167V221.667Z" fill="white"/>
</svg>
