<svg width="374" height="171" viewBox="0 0 374 171" fill="none" xmlns="http://www.w3.org/2000/svg">
<path fill-rule="evenodd" clip-rule="evenodd" d="M163.723 0C167.461 0 172.617 1.16087 175.969 2.7087C179.191 4.12754 183.574 6.96522 189.503 12.8986L192.081 10.1899C193.499 8.64203 197.237 6.1913 200.459 4.51449C203.681 2.96667 208.58 1.16087 211.415 0.644928C214.767 0.128986 219.149 0.515942 224.047 1.8058C228.816 3.09565 233.199 5.54638 236.808 8.77102C239.644 11.3507 243.511 16.5101 245.057 19.9928C247.249 24.5072 248.151 28.7638 248.151 34.1812C248.151 39.5986 247.249 43.8551 245.186 48.3696C243.511 51.9812 239.902 57.2696 232.039 65.9116L200.459 65.7826L197.237 70.6841C195.045 74.0377 193.885 74.9406 193.499 73.5217C193.112 72.4899 191.307 62.9449 189.503 52.2391C187.569 41.6623 185.636 32.3754 185.249 31.8594C184.734 31.2145 183.187 30.9565 181.898 31.2145C180.093 31.4725 178.804 33.6652 177.129 39.9855C175.969 44.629 173.906 52.2391 170.168 65.7826H158.568C147.225 65.7826 146.838 65.7826 142.842 61.6551C140.651 59.3333 137.171 54.1739 135.237 50.3043C133.304 46.4348 131.37 40.3725 131.112 36.7609C130.726 32.8913 131.37 27.7319 132.53 23.8623C133.69 20.3797 136.784 14.8333 139.491 11.7377C142.198 8.51304 147.225 4.64348 150.834 2.96667C154.83 1.16087 159.728 0 163.723 0ZM184.734 69.0072C186.409 78.2942 188.343 87.0652 188.987 88.742C189.632 90.2899 191.178 91.5797 192.467 91.5797C193.885 91.5797 196.205 88.6131 199.17 82.9377C201.619 78.2942 204.197 74.1667 204.97 73.9087C205.744 73.6507 210.513 73.6507 225.078 74.1667L208.966 92.2246C199.686 102.543 191.694 110.412 190.147 110.67C188.214 110.799 183.058 105.897 154.185 74.1667L175.969 73.5217L177.902 66.8145C178.933 63.0739 180.093 58.3014 180.738 56.1087C181.511 53.013 182.156 55.4638 184.734 69.0072Z" fill="#063949"/>
<path d="M32.0114 144H27.4318C27.161 142.683 26.6871 141.526 26.01 140.528C25.3452 139.531 24.5327 138.694 23.5725 138.017C22.6246 137.328 21.572 136.811 20.4148 136.466C19.2576 136.121 18.0512 135.949 16.7955 135.949C14.5057 135.949 12.4314 136.527 10.5725 137.685C8.72587 138.842 7.25476 140.547 6.15911 142.8C5.07578 145.053 4.53411 147.816 4.53411 151.091C4.53411 154.366 5.07578 157.129 6.15911 159.382C7.25476 161.635 8.72587 163.34 10.5725 164.497C12.4314 165.654 14.5057 166.233 16.7955 166.233C18.0512 166.233 19.2576 166.061 20.4148 165.716C21.572 165.371 22.6246 164.86 23.5725 164.183C24.5327 163.494 25.3452 162.651 26.01 161.653C26.6871 160.644 27.161 159.487 27.4318 158.182H32.0114C31.6667 160.115 31.0388 161.844 30.1279 163.371C29.2169 164.897 28.0843 166.196 26.7301 167.267C25.376 168.326 23.8556 169.132 22.1691 169.686C20.4948 170.24 18.7036 170.517 16.7955 170.517C13.5701 170.517 10.7017 169.729 8.19036 168.153C5.679 166.578 3.70315 164.337 2.26281 161.432C0.822465 158.527 0.102295 155.08 0.102295 151.091C0.102295 147.102 0.822465 143.655 2.26281 140.75C3.70315 137.845 5.679 135.604 8.19036 134.028C10.7017 132.453 13.5701 131.665 16.7955 131.665C18.7036 131.665 20.4948 131.942 22.1691 132.496C23.8556 133.05 25.376 133.862 26.7301 134.933C28.0843 135.992 29.2169 137.285 30.1279 138.811C31.0388 140.325 31.6667 142.055 32.0114 144Z" fill="#063949"/>
<path d="M43.1786 132.182V170H38.8207V132.182H43.1786Z" fill="#063949"/>
<path d="M51.1605 170V141.636H55.5185V170H51.1605ZM51.3821 137.795L55.8878 129.227H60.9844L55.223 137.795H51.3821Z" fill="#063949"/>
<path d="M67.8583 152.938V170H63.5004V141.636H67.7106V146.068H68.0799C68.7447 144.628 69.7542 143.471 71.1083 142.597C72.4625 141.71 74.2106 141.267 76.3527 141.267C78.2731 141.267 79.9535 141.661 81.3938 142.449C82.8342 143.224 83.9544 144.406 84.7546 145.994C85.5548 147.57 85.9549 149.564 85.9549 151.977V170H81.597V152.273C81.597 150.045 81.0184 148.309 79.8612 147.065C78.704 145.81 77.1159 145.182 75.097 145.182C73.7059 145.182 72.4625 145.483 71.3669 146.087C70.2835 146.69 69.4279 147.57 68.8001 148.727C68.1723 149.884 67.8583 151.288 67.8583 152.938Z" fill="#063949"/>
<path d="M93.9183 170V141.636H98.2763V170H93.9183ZM96.1343 136.909C95.2848 136.909 94.5523 136.62 93.9368 136.041C93.3336 135.463 93.032 134.767 93.032 133.955C93.032 133.142 93.3336 132.446 93.9368 131.868C94.5523 131.289 95.2848 131 96.1343 131C96.9837 131 97.71 131.289 98.3132 131.868C98.9288 132.446 99.2365 133.142 99.2365 133.955C99.2365 134.767 98.9288 135.463 98.3132 136.041C97.71 136.62 96.9837 136.909 96.1343 136.909Z" fill="#063949"/>
<path d="M117.781 170.591C115.122 170.591 112.832 169.963 110.912 168.707C108.991 167.452 107.514 165.722 106.48 163.518C105.446 161.315 104.929 158.797 104.929 155.966C104.929 153.085 105.458 150.543 106.517 148.339C107.588 146.124 109.077 144.394 110.985 143.151C112.906 141.895 115.146 141.267 117.707 141.267C119.701 141.267 121.499 141.636 123.099 142.375C124.699 143.114 126.011 144.148 127.032 145.477C128.054 146.807 128.688 148.358 128.934 150.131H124.576C124.244 148.838 123.505 147.693 122.36 146.696C121.228 145.687 119.701 145.182 117.781 145.182C116.082 145.182 114.592 145.625 113.312 146.511C112.044 147.385 111.053 148.623 110.339 150.223C109.637 151.811 109.287 153.676 109.287 155.818C109.287 158.009 109.631 159.918 110.321 161.543C111.022 163.168 112.007 164.429 113.275 165.328C114.556 166.227 116.057 166.676 117.781 166.676C118.913 166.676 119.941 166.479 120.865 166.085C121.788 165.691 122.57 165.125 123.21 164.386C123.85 163.648 124.306 162.761 124.576 161.727H128.934C128.688 163.402 128.079 164.91 127.106 166.251C126.146 167.581 124.872 168.64 123.284 169.428C121.708 170.203 119.874 170.591 117.781 170.591Z" fill="#063949"/>
<path d="M143.652 170.665C141.854 170.665 140.223 170.326 138.758 169.649C137.293 168.96 136.13 167.969 135.268 166.676C134.406 165.371 133.976 163.795 133.976 161.949C133.976 160.324 134.296 159.007 134.936 157.997C135.576 156.975 136.431 156.175 137.503 155.597C138.574 155.018 139.755 154.587 141.048 154.304C142.353 154.009 143.664 153.775 144.981 153.602C146.705 153.381 148.102 153.214 149.173 153.104C150.256 152.981 151.044 152.777 151.537 152.494C152.041 152.211 152.294 151.719 152.294 151.017V150.869C152.294 149.047 151.795 147.632 150.798 146.622C149.813 145.613 148.317 145.108 146.311 145.108C144.23 145.108 142.599 145.563 141.417 146.474C140.235 147.385 139.404 148.358 138.924 149.392L134.788 147.915C135.527 146.191 136.512 144.849 137.743 143.889C138.986 142.917 140.34 142.24 141.805 141.858C143.282 141.464 144.735 141.267 146.163 141.267C147.074 141.267 148.12 141.378 149.302 141.599C150.496 141.809 151.647 142.246 152.755 142.911C153.876 143.575 154.805 144.579 155.544 145.92C156.282 147.262 156.652 149.06 156.652 151.312V170H152.294V166.159H152.072C151.777 166.775 151.284 167.433 150.595 168.135C149.905 168.837 148.988 169.434 147.843 169.926C146.699 170.419 145.301 170.665 143.652 170.665ZM144.316 166.75C146.04 166.75 147.493 166.411 148.674 165.734C149.869 165.057 150.767 164.183 151.37 163.112C151.986 162.041 152.294 160.915 152.294 159.733V155.744C152.109 155.966 151.703 156.169 151.075 156.354C150.459 156.526 149.745 156.68 148.933 156.815C148.133 156.938 147.351 157.049 146.588 157.148C145.837 157.234 145.227 157.308 144.76 157.369C143.627 157.517 142.568 157.757 141.583 158.089C140.611 158.41 139.823 158.896 139.22 159.548C138.629 160.188 138.333 161.063 138.333 162.17C138.333 163.685 138.894 164.83 140.014 165.605C141.146 166.368 142.581 166.75 144.316 166.75Z" fill="#063949"/>
<path d="M189.129 164.83V137.5H197.401V164.83H189.129ZM179.6 155.301V147.028H206.93V155.301H179.6Z" fill="#063949"/>
<path d="M234.121 144C234.022 142.769 233.561 141.809 232.736 141.119C231.923 140.43 230.686 140.085 229.024 140.085C227.965 140.085 227.098 140.214 226.42 140.473C225.756 140.719 225.263 141.058 224.943 141.489C224.623 141.92 224.457 142.412 224.445 142.966C224.42 143.421 224.5 143.834 224.685 144.203C224.882 144.56 225.189 144.886 225.608 145.182C226.027 145.465 226.562 145.723 227.215 145.957C227.867 146.191 228.643 146.401 229.541 146.585L232.643 147.25C234.736 147.693 236.527 148.278 238.017 149.004C239.507 149.731 240.725 150.586 241.673 151.571C242.621 152.544 243.317 153.639 243.76 154.858C244.215 156.077 244.449 157.406 244.462 158.847C244.449 161.333 243.828 163.438 242.597 165.162C241.366 166.885 239.605 168.196 237.315 169.095C235.038 169.994 232.299 170.443 229.098 170.443C225.811 170.443 222.943 169.957 220.493 168.984C218.055 168.012 216.16 166.516 214.805 164.497C213.464 162.466 212.786 159.868 212.774 156.705H222.524C222.586 157.862 222.875 158.834 223.392 159.622C223.909 160.41 224.635 161.007 225.571 161.413C226.519 161.82 227.645 162.023 228.95 162.023C230.046 162.023 230.963 161.887 231.702 161.616C232.44 161.346 233 160.97 233.382 160.49C233.764 160.01 233.961 159.462 233.973 158.847C233.961 158.268 233.77 157.763 233.401 157.332C233.044 156.889 232.453 156.495 231.628 156.151C230.803 155.794 229.689 155.461 228.286 155.153L224.518 154.341C221.17 153.615 218.529 152.402 216.597 150.703C214.676 148.992 213.722 146.659 213.734 143.705C213.722 141.304 214.362 139.205 215.655 137.408C216.96 135.598 218.763 134.188 221.065 133.179C223.38 132.17 226.033 131.665 229.024 131.665C232.077 131.665 234.718 132.176 236.946 133.197C239.174 134.219 240.892 135.66 242.098 137.518C243.317 139.365 243.932 141.526 243.945 144H234.121Z" fill="#063949"/>
<path d="M256.418 170.443C254.609 170.443 253.008 170.148 251.617 169.557C250.238 168.954 249.155 168.043 248.367 166.824C247.579 165.605 247.185 164.054 247.185 162.17C247.185 160.619 247.45 159.296 247.979 158.2C248.509 157.092 249.247 156.187 250.195 155.486C251.143 154.784 252.245 154.249 253.501 153.879C254.769 153.51 256.135 153.27 257.6 153.159C259.188 153.036 260.462 152.888 261.423 152.716C262.395 152.531 263.097 152.279 263.528 151.959C263.959 151.626 264.174 151.189 264.174 150.648V150.574C264.174 149.835 263.891 149.269 263.325 148.875C262.758 148.481 262.032 148.284 261.146 148.284C260.173 148.284 259.379 148.5 258.764 148.93C258.16 149.349 257.797 149.995 257.674 150.869H248.293C248.416 149.146 248.964 147.558 249.937 146.105C250.922 144.64 252.356 143.471 254.239 142.597C256.123 141.71 258.474 141.267 261.293 141.267C263.325 141.267 265.147 141.507 266.759 141.987C268.372 142.455 269.745 143.114 270.877 143.963C272.01 144.8 272.871 145.785 273.462 146.918C274.066 148.038 274.367 149.257 274.367 150.574V170H264.839V166.011H264.617C264.051 167.07 263.362 167.926 262.549 168.578C261.749 169.231 260.832 169.705 259.798 170C258.776 170.295 257.649 170.443 256.418 170.443ZM259.742 164.017C260.518 164.017 261.244 163.857 261.921 163.537C262.611 163.217 263.171 162.755 263.602 162.152C264.032 161.549 264.248 160.816 264.248 159.955V157.591C263.977 157.702 263.688 157.806 263.38 157.905C263.085 158.003 262.764 158.096 262.42 158.182C262.087 158.268 261.73 158.348 261.349 158.422C260.979 158.496 260.592 158.563 260.185 158.625C259.398 158.748 258.751 158.951 258.246 159.234C257.754 159.505 257.385 159.844 257.139 160.25C256.905 160.644 256.788 161.087 256.788 161.58C256.788 162.367 257.065 162.971 257.619 163.389C258.173 163.808 258.88 164.017 259.742 164.017Z" fill="#063949"/>
<path d="M297.63 157.591V141.636H307.823V170H298.147V164.608H297.851C297.236 166.418 296.159 167.833 294.62 168.855C293.081 169.865 291.253 170.369 289.135 170.369C287.153 170.369 285.418 169.914 283.928 169.003C282.451 168.092 281.3 166.836 280.475 165.236C279.662 163.635 279.25 161.801 279.238 159.733V141.636H289.431V157.591C289.443 158.994 289.8 160.096 290.502 160.896C291.216 161.696 292.213 162.097 293.493 162.097C294.343 162.097 295.075 161.918 295.691 161.561C296.319 161.192 296.799 160.675 297.131 160.01C297.476 159.333 297.642 158.527 297.63 157.591ZM290.169 138.091L293.715 129.818H302.431L296.891 138.091H290.169Z" fill="#063949"/>
<path d="M323.274 170.369C321.255 170.369 319.396 169.84 317.697 168.781C316.011 167.723 314.657 166.116 313.635 163.962C312.626 161.807 312.121 159.093 312.121 155.818C312.121 152.396 312.65 149.614 313.709 147.472C314.78 145.33 316.159 143.76 317.845 142.763C319.544 141.766 321.329 141.267 323.2 141.267C324.604 141.267 325.835 141.513 326.893 142.006C327.952 142.486 328.839 143.132 329.553 143.945C330.267 144.745 330.808 145.625 331.178 146.585H331.325V132.182H341.518V170H331.399V165.347H331.178C330.784 166.307 330.217 167.169 329.479 167.932C328.752 168.683 327.866 169.28 326.82 169.723C325.786 170.154 324.604 170.369 323.274 170.369ZM327.041 162.54C327.977 162.54 328.777 162.269 329.442 161.727C330.119 161.173 330.636 160.398 330.993 159.401C331.362 158.391 331.547 157.197 331.547 155.818C331.547 154.415 331.362 153.214 330.993 152.217C330.636 151.208 330.119 150.438 329.442 149.909C328.777 149.367 327.977 149.097 327.041 149.097C326.106 149.097 325.305 149.367 324.641 149.909C323.988 150.438 323.483 151.208 323.126 152.217C322.782 153.214 322.609 154.415 322.609 155.818C322.609 157.222 322.782 158.428 323.126 159.438C323.483 160.435 323.988 161.204 324.641 161.746C325.305 162.275 326.106 162.54 327.041 162.54Z" fill="#063949"/>
<path d="M360.114 170.517C357.085 170.517 354.475 169.938 352.284 168.781C350.105 167.612 348.425 165.938 347.243 163.759C346.073 161.567 345.489 158.945 345.489 155.892C345.489 152.962 346.08 150.402 347.261 148.21C348.443 146.019 350.111 144.314 352.266 143.095C354.42 141.876 356.962 141.267 359.892 141.267C362.034 141.267 363.973 141.599 365.709 142.264C367.445 142.929 368.928 143.895 370.159 145.163C371.39 146.419 372.338 147.946 373.003 149.743C373.668 151.54 374 153.565 374 155.818V158.182H348.665V152.568H364.619C364.607 151.756 364.398 151.042 363.991 150.426C363.598 149.798 363.062 149.312 362.385 148.967C361.72 148.61 360.963 148.432 360.114 148.432C359.289 148.432 358.532 148.61 357.842 148.967C357.153 149.312 356.599 149.792 356.18 150.408C355.774 151.023 355.559 151.743 355.534 152.568V158.625C355.534 159.536 355.725 160.348 356.107 161.062C356.488 161.777 357.036 162.337 357.75 162.743C358.464 163.149 359.326 163.352 360.335 163.352C361.037 163.352 361.677 163.254 362.256 163.057C362.847 162.86 363.351 162.577 363.77 162.207C364.188 161.826 364.496 161.37 364.693 160.841H374C373.68 162.811 372.923 164.522 371.729 165.974C370.535 167.415 368.953 168.535 366.983 169.335C365.026 170.123 362.736 170.517 360.114 170.517Z" fill="#063949"/>
</svg>
